# xmcd
#
# Track frame offsets:
#	150
#	12131
#	24777
#	43279
#	62191
#
# Disc length: 1030 seconds
#
# Revision: 0
# Processed by: cddbd v1.5.1PL0 Copyright (c) Steve Scherf et al.
# Submitted via: dBpowerAMP V4.0
#
DISCID=36040405
DTITLE=Greg Hale Jones - Now There Is A Tree Of Ghosts
DYEAR=1998
DGENRE=Blues
TTITLE0=She Began to Lie
TTITLE1=Rachel Rocket
TTITLE2=Mighty Good Road
TTITLE3=Gonna Rise and Fly
TTITLE4=Sept Ans Sur Mer
EXTD=
EXTT0=
EXTT1=
EXTT2=
EXTT3=
EXTT4=
PLAYORDER=
